<svg version="1.1" id="Layer_1" xmlns="http://www.w3.org/2000/svg" xmlns:xlink="http://www.w3.org/1999/xlink" x="0px" y="0px"
	 width="100%" viewBox="0 0 225 225" enable-background="new 0 0 225 225" xml:space="preserve">
<path fill="#FF0101" opacity="1.000000" stroke="none" 
	d="
M100.000000,1.000000 
	C105.022095,1.000000 110.044182,1.000000 115.690704,1.378467 
	C116.971825,1.837723 117.626785,1.937815 118.285439,1.996523 
	C146.161484,4.481196 166.265625,20.247046 172.651520,44.971733 
	C175.975922,57.842972 176.141830,70.895149 174.287994,84.072151 
	C171.510361,103.815361 160.901169,117.644028 143.245651,126.328789 
	C139.403870,128.218567 135.368896,129.715576 131.267517,131.459549 
	C147.329132,162.348923 163.329391,193.120300 179.084091,224.275284 
	C162.561508,224.769211 146.284500,224.879532 129.809448,224.699738 
	C115.815506,195.844421 102.019600,167.279236 88.223686,138.714050 
	C87.807251,138.876877 87.390808,139.039719 86.974373,139.202545 
	C86.974373,167.790527 86.974373,196.378510 86.507706,224.985748 
	C73.085884,224.940811 60.130733,224.876633 47.152908,224.356110 
	C47.144882,149.995590 47.159534,76.091408 47.629166,2.133930 
	C63.715652,2.055331 79.347351,2.060103 94.978394,1.961022 
	C96.654221,1.950399 98.326225,1.334903 100.000000,1.000000 
M125.190674,44.262798 
	C120.360046,42.198063 115.696999,39.256802 110.655884,38.293022 
	C104.513756,37.118752 98.046761,37.719997 91.733780,37.332977 
	C88.239868,37.118786 87.161537,38.418850 87.190369,41.896809 
	C87.351875,61.378994 87.304550,80.862907 87.326851,100.346237 
	C87.330994,103.964493 87.327446,107.582756 87.327446,111.394096 
	C94.890396,111.394096 101.835419,111.548378 108.770241,111.348495 
	C115.063019,111.167130 120.248314,108.290260 124.588829,103.835876 
	C131.345764,96.901688 134.057632,88.181534 134.507721,78.893677 
	C135.097824,66.716927 135.223557,54.429184 125.190674,44.262798 
z"/>
<path fill="#FFFEFE" opacity="1.000000" stroke="none" 
	d="
M179.329651,223.891693 
	C163.329391,193.120300 147.329132,162.348923 131.267517,131.459549 
	C135.368896,129.715576 139.403870,128.218567 143.245651,126.328789 
	C160.901169,117.644028 171.510361,103.815361 174.287994,84.072151 
	C176.141830,70.895149 175.975922,57.842972 172.651520,44.971733 
	C166.265625,20.247046 146.161484,4.481196 118.285439,1.996523 
	C117.626785,1.937815 116.971825,1.837723 116.157570,1.378467 
	C152.624527,1.000000 189.249054,1.000000 225.936798,1.000000 
	C225.936798,75.999992 225.936798,151.000000 225.936798,226.000000 
	C210.902832,226.000000 195.920074,226.000000 180.500336,225.695190 
	C179.818787,224.890808 179.574219,224.391251 179.329651,223.891693 
z"/>
<path fill="#FFFFFF" opacity="1.000000" stroke="none" 
	d="
M47.174187,2.187219 
	C47.159534,76.091408 47.144882,149.995590 47.089279,224.650085 
	C47.032223,225.600266 47.016113,225.800125 47.000000,226.000000 
	C31.687849,226.000000 16.375700,226.000000 1.063004,226.000000 
	C1.062459,150.999985 1.062459,75.999969 1.062459,1.000000 
	C16.104174,1.000000 31.083427,1.000000 46.554688,1.299769 
	C47.089184,1.795432 47.131683,1.991325 47.174187,2.187219 
z"/>
<path fill="#FFFAFA" opacity="1.000000" stroke="none" 
	d="
M86.974373,224.966492 
	C86.974373,196.378510 86.974373,167.790527 86.974373,139.202545 
	C87.390808,139.039719 87.807251,138.876877 88.223686,138.714050 
	C102.019600,167.279236 115.815506,195.844421 129.800201,224.952209 
	C129.992630,225.663208 129.996307,225.831604 130.000000,226.000000 
	C115.979103,226.000000 101.958214,226.000000 87.497971,225.740738 
	C87.030533,225.309814 87.002457,225.138153 86.974373,224.966492 
z"/>
<path fill="#FFA1A1" opacity="1.000000" stroke="none" 
	d="
M47.629166,2.133930 
	C47.131683,1.991325 47.089184,1.795432 47.023346,1.299769 
	C64.354225,1.000000 81.708458,1.000000 99.531342,1.000000 
	C98.326225,1.334903 96.654221,1.950399 94.978394,1.961022 
	C79.347351,2.060103 63.715652,2.055331 47.629166,2.133930 
z"/>
<path fill="#FF9E9E" opacity="1.000000" stroke="none" 
	d="
M130.468658,226.000000 
	C129.996307,225.831604 129.992630,225.663208 129.998230,225.242340 
	C146.284500,224.879532 162.561508,224.769211 179.084076,224.275284 
	C179.574219,224.391251 179.818787,224.890808 180.031677,225.695190 
	C163.645767,226.000000 147.291550,226.000000 130.468658,226.000000 
z"/>
<path fill="#FFA0A0" opacity="1.000000" stroke="none" 
	d="
M86.507706,224.985748 
	C87.002457,225.138153 87.030533,225.309814 87.029312,225.740738 
	C73.979103,226.000000 60.958210,226.000000 47.468658,226.000000 
	C47.016113,225.800125 47.032223,225.600266 47.111958,225.106415 
	C60.130733,224.876633 73.085884,224.940811 86.507706,224.985748 
z"/>
<path fill="#FFFBFB" opacity="1.000000" stroke="none" 
	d="
M125.459549,44.503235 
	C135.223557,54.429184 135.097824,66.716927 134.507721,78.893677 
	C134.057632,88.181534 131.345764,96.901688 124.588829,103.835876 
	C120.248314,108.290260 115.063019,111.167130 108.770241,111.348495 
	C101.835419,111.548378 94.890396,111.394096 87.327446,111.394096 
	C87.327446,107.582756 87.330994,103.964493 87.326851,100.346237 
	C87.304550,80.862907 87.351875,61.378994 87.190369,41.896809 
	C87.161537,38.418850 88.239868,37.118786 91.733780,37.332977 
	C98.046761,37.719997 104.513756,37.118752 110.655884,38.293022 
	C115.696999,39.256802 120.360046,42.198063 125.459549,44.503235 
z"/>
</svg>